# xmcd CD database file
#
# Track frame offsets:
#	150
#	4674
#	22959
#	43531
#	61126
#	79714
#	96766
#	128848
#	129295
#	148116
#	148501
#	184303
#	213606
#	237184
#	252545
#	266172
#	283311
#
# Disc length: 4265 seconds
#
# Revision: 0
# Processed by: cddbd v1.5.2PL0 Copyright (c) Steve Scherf et al.
# Submitted via: CDex 1.86
#
DISCID=fa10a711
DTITLE=Henry "Gip" Gipson - Nothing But The Blues
DYEAR=1900
DGENRE=Blues
TTITLE0=Intro
TTITLE1=Two Trains Running
TTITLE2=Worried Life Blues
TTITLE3=Want to See My Chauffer
TTITLE4=Change My Mind
TTITLE5=Greyhound Bus Station
TTITLE6=Things I Used To Do
TTITLE7=SKIP
TTITLE8=Trouble Trouble
TTITLE9=SKIP
TTITLE10=Two Trains Running PT 2
TTITLE11=Sugar Mama
TTITLE12=Going Home Without You
TTITLE13=Someday
TTITLE14=Sally Mae
TTITLE15=SallyMae
TTITLE16=Worried Life Blues PT 2
EXTD=
EXTT0=
EXTT1=
EXTT2=
EXTT3=
EXTT4=
EXTT5=
EXTT6=
EXTT7=
EXTT8=
EXTT9=
EXTT10=
EXTT11=
EXTT12=
EXTT13=
EXTT14=
EXTT15=
EXTT16=
PLAYORDER=
